<?xml version="1.0" standalone="no"?>
<!DOCTYPE svg PUBLIC "-//W3C//DTD SVG 20010904//EN"
 "http://www.w3.org/TR/2001/REC-SVG-20010904/DTD/svg10.dtd">
<svg version="1.0" xmlns="http://www.w3.org/2000/svg"
 width="500.000000pt" height="500.000000pt" viewBox="0 0 500.000000 500.000000"
 preserveAspectRatio="xMidYMid meet">

<g transform="translate(0.000000,500.000000) scale(0.100000,-0.100000)"
fill="#000000" stroke="none">
<path d="M2187 4166 c-61 -23 -113 -62 -143 -109 -28 -43 -31 -45 -89 -49 -37
-3 -80 -15 -111 -31 -99 -50 -184 -178 -184 -276 0 -37 -3 -41 -55 -70 -30
-17 -71 -52 -92 -78 -36 -46 -40 -48 -88 -48 -58 -1 -103 -27 -132 -75 l-17
-30 -151 0 c-120 0 -155 -3 -173 -16 -22 -15 -22 -18 -22 -261 l0 -247 185
-296 c102 -163 185 -299 185 -303 0 -4 -32 -7 -72 -7 l-71 0 -46 51 c-35 39
-56 53 -89 60 -139 30 -248 -112 -182 -240 23 -46 70 -78 127 -87 55 -8 127
25 155 72 l20 34 118 0 118 0 48 -77 c26 -43 58 -93 71 -110 l24 -33 240 0
239 0 0 -55 0 -55 -256 0 -256 0 -39 44 c-65 73 -153 86 -224 31 -46 -34 -67
-78 -67 -135 0 -81 45 -139 123 -160 70 -19 152 17 185 81 l15 29 257 -2 257
-3 0 -55 0 -55 -157 -5 c-86 -3 -158 -7 -161 -10 -2 -3 -38 -51 -81 -107 l-77
-103 -188 0 -189 0 -20 34 c-27 45 -100 80 -153 73 -87 -12 -149 -82 -149
-167 0 -164 230 -225 307 -82 l18 32 216 0 217 0 82 110 82 110 128 0 127 0 7
-41 c8 -49 57 -104 102 -114 56 -13 55 -11 52 -81 l-3 -66 -123 -51 c-141 -57
-166 -80 -138 -122 24 -36 51 -32 221 38 l150 62 3 103 3 102 89 0 90 0 0 -85
0 -85 -38 -25 c-52 -34 -76 -79 -76 -140 0 -127 123 -201 240 -145 48 24 68
49 83 106 16 61 -2 110 -60 165 l-49 47 0 81 0 81 90 0 90 0 0 -100 c0 -86 2
-101 18 -109 10 -6 75 -19 143 -31 68 -11 134 -23 147 -25 21 -5 22 -10 22
-98 0 -103 14 -137 55 -137 48 0 55 20 55 164 0 114 -2 135 -18 149 -10 10
-68 24 -147 37 -174 28 -171 27 -170 86 0 57 9 74 37 74 53 0 128 82 128 140
0 19 6 20 129 20 l130 0 82 -110 82 -110 218 0 c201 0 218 -1 223 -18 19 -59
115 -106 185 -91 140 29 175 217 57 297 -75 51 -185 29 -228 -44 l-20 -34
-191 0 -192 0 -55 77 c-30 43 -68 92 -84 110 l-28 33 -155 0 -154 0 3 58 3 57
256 3 255 2 25 -37 c33 -50 79 -75 139 -75 90 0 150 55 158 144 5 67 -14 117
-59 151 -73 55 -163 44 -227 -28 l-40 -45 -256 0 -256 0 0 55 0 55 231 0 c127
0 238 4 247 9 9 5 51 55 92 110 l75 100 50 1 c46 0 52 -3 73 -36 80 -123 283
-70 299 77 5 55 -28 125 -74 154 l-32 20 -1 113 0 113 55 82 55 82 0 157 c0
120 3 158 13 158 38 0 97 91 97 150 0 59 -59 150 -97 150 -10 0 -13 54 -13
243 0 224 -2 245 -18 260 -15 14 -41 17 -144 17 -70 0 -133 -3 -141 -6 -9 -3
-39 -41 -68 -85 l-52 -79 -94 0 -95 0 -47 49 c-25 27 -59 53 -75 57 -16 4 -56
35 -90 69 -67 68 -143 105 -219 105 -39 1 -44 4 -77 52 -23 34 -53 61 -90 82
-49 27 -64 31 -135 31 -89 0 -127 -14 -190 -69 l-37 -31 -36 32 c-19 18 -51
40 -71 50 -47 22 -155 27 -204 9z m186 -129 c62 -47 67 -70 67 -307 0 -198 -1
-212 -17 -205 -10 4 -45 9 -78 12 -108 9 -205 -50 -175 -108 15 -27 53 -33 88
-15 43 22 110 20 150 -4 l32 -20 0 -250 0 -249 -32 19 c-53 31 -147 52 -200
44 l-48 -6 0 61 c0 57 2 61 30 76 101 52 108 217 11 280 -20 13 -52 27 -72 30
-71 13 -168 -53 -184 -125 -11 -51 -94 -54 -164 -5 -62 42 -111 27 -111 -34 0
-25 64 -78 113 -93 43 -13 45 -23 17 -79 -24 -46 -87 -95 -142 -110 -50 -13
-68 -47 -44 -84 31 -47 126 -21 212 58 58 53 85 95 103 165 14 50 35 55 71 17
13 -14 29 -25 37 -25 10 0 13 -39 13 -188 l0 -188 -45 -32 c-42 -29 -105 -112
-105 -137 0 -6 -31 -10 -84 -10 -92 0 -126 -16 -126 -61 0 -41 27 -57 86 -49
89 11 161 -34 194 -120 6 -15 19 -29 31 -32 14 -4 18 -10 12 -22 -4 -9 -9 -53
-11 -98 l-3 -82 -37 -7 c-118 -22 -236 79 -247 212 -3 41 -10 63 -22 72 -10 7
-37 26 -59 42 -57 39 -86 101 -82 177 l3 58 55 -2 c111 -5 230 32 303 97 40
35 48 68 21 94 -25 25 -56 19 -111 -23 -61 -46 -154 -68 -222 -52 -90 20 -175
96 -208 184 -20 56 -16 146 11 204 21 45 30 53 65 63 104 28 161 142 116 231
-19 36 -11 54 46 103 82 70 194 68 288 -5 27 -22 71 -25 89 -7 7 7 12 24 12
38 0 50 -87 108 -194 130 l-58 12 6 36 c16 100 116 182 220 182 122 -1 214
-91 228 -225 2 -19 12 -34 29 -44 24 -13 29 -13 54 3 26 17 27 21 22 76 -3 31
-14 78 -25 103 -25 56 -101 140 -142 157 -36 15 -37 20 -7 48 64 60 156 68
220 19z m451 -1 c43 -32 45 -51 9 -70 -45 -23 -110 -97 -134 -150 -11 -27 -23
-75 -26 -106 -5 -54 -4 -59 21 -75 22 -14 32 -16 51 -7 24 11 28 21 40 93 3
20 19 57 36 82 73 110 241 129 337 38 26 -26 27 -34 6 -52 -24 -20 -44 -65
-44 -98 0 -26 -7 -34 -42 -52 -61 -30 -98 -68 -98 -99 0 -53 49 -66 103 -27
61 43 77 46 127 19 38 -20 54 -23 101 -18 51 5 58 3 82 -22 37 -39 57 -93 57
-157 0 -49 3 -59 27 -78 106 -86 144 -153 142 -256 -1 -67 -14 -105 -56 -164
-86 -123 -256 -148 -385 -57 -62 43 -88 49 -112 24 -27 -26 -19 -59 21 -94 77
-68 198 -104 308 -93 l57 6 -4 -74 c-5 -90 -35 -143 -109 -189 -27 -16 -49
-35 -49 -42 -5 -120 -37 -185 -114 -232 -36 -23 -63 -31 -111 -34 l-63 -4 -4
88 c-3 49 -8 96 -12 105 -5 12 -1 18 12 21 11 3 29 25 40 49 35 79 100 114
186 104 62 -8 89 10 84 54 -5 42 -58 64 -140 57 l-66 -6 -13 37 c-16 50 -94
126 -152 148 -26 10 -47 20 -47 24 1 3 15 15 33 26 104 66 104 210 -2 276 -31
20 -58 29 -87 29 -44 0 -54 10 -54 53 0 27 -28 57 -53 57 -53 0 -71 -59 -42
-140 13 -37 13 -45 -1 -72 -21 -40 -14 -120 13 -156 11 -15 34 -36 51 -47 30
-19 31 -22 32 -92 l0 -73 -49 -24 c-27 -14 -51 -32 -55 -41 -3 -9 -6 -57 -6
-106 l0 -90 -57 3 -58 3 2 295 c1 162 2 352 2 422 l1 127 32 37 c18 21 56 47
84 60 64 28 82 65 48 98 -22 23 -62 20 -117 -9 l-47 -25 0 305 c0 243 3 312
14 333 47 91 170 120 250 58z m1136 -451 c0 -157 -3 -205 -12 -205 -19 -1 -54
-33 -77 -71 -43 -70 -14 -184 56 -218 l33 -16 0 -140 0 -140 -55 -82 -55 -82
0 -125 0 -124 -34 -22 c-19 -11 -45 -37 -56 -56 -21 -34 -22 -34 -95 -34 l-73
0 -82 -110 -82 -110 -60 0 -59 0 20 29 c31 44 61 112 61 142 0 19 18 45 63 91
87 87 111 149 104 271 l-5 88 54 51 c34 32 67 76 87 117 30 61 32 73 32 166 0
88 -3 107 -27 158 -15 32 -52 84 -83 116 -46 48 -55 64 -55 94 0 54 -34 133
-80 188 -22 26 -40 50 -40 53 0 3 54 6 121 6 66 0 129 5 140 10 10 6 41 44 69
85 l51 75 69 0 70 0 0 -205z m-642 139 c41 -28 18 -104 -31 -104 -51 0 -74 63
-37 100 24 24 38 25 68 4z m-1848 -344 c31 -31 25 -66 -16 -88 -54 -28 -103
57 -52 92 30 21 44 20 68 -4z m-174 -131 l26 -41 -24 -52 c-19 -42 -23 -68
-23 -151 0 -88 3 -107 27 -158 32 -68 87 -138 123 -157 23 -12 26 -18 20 -49
-25 -131 11 -248 101 -330 45 -41 54 -56 68 -112 9 -35 30 -83 46 -106 l30
-43 -58 0 -57 0 -267 430 -268 431 0 183 c0 100 3 186 7 189 3 4 55 7 115 7
l108 0 26 -41z m842 25 c42 -29 17 -104 -35 -104 -20 0 -53 38 -53 60 0 20 36
60 55 60 6 0 21 -7 33 -16z m1913 -5 c27 -27 22 -69 -12 -88 -24 -13 -29 -13
-53 2 -34 22 -36 69 -4 91 30 21 44 20 69 -5z m-1179 -336 c20 -18 24 -63 6
-81 -20 -20 -76 -15 -88 7 -14 28 -12 52 7 73 20 22 51 23 75 1z m-533 -116
c24 -12 57 -38 72 -57 l28 -35 1 -185 c0 -102 1 -191 0 -197 0 -9 -18 -13 -55
-13 l-55 0 0 93 c0 50 -4 98 -9 106 -5 8 -42 27 -83 42 l-73 26 -3 121 -3 121
33 4 c51 6 99 -3 147 -26z m601 -243 c35 -30 60 -73 60 -104 0 -12 -13 -38
-29 -58 -16 -20 -33 -50 -38 -67 -7 -22 -15 -29 -29 -26 -10 2 -43 5 -71 8
l-53 5 0 68 c0 66 1 68 30 80 56 23 80 49 80 86 0 41 9 42 50 8z m-798 -86
l73 -25 3 -66 3 -67 -45 0 c-25 0 -56 -4 -69 -9 -23 -9 -27 -7 -40 28 -9 21
-27 51 -41 68 -31 37 -33 67 -5 113 l21 34 14 -26 c10 -20 32 -32 86 -50z
m-1121 -229 c27 -27 22 -69 -12 -88 -24 -13 -29 -13 -53 2 -34 22 -36 69 -4
91 30 21 44 20 69 -5z m2919 1 c11 -11 20 -29 20 -40 0 -24 -34 -60 -57 -60
-49 0 -72 76 -31 104 30 21 44 20 68 -4z m-1068 -57 c17 -15 18 -40 18 -379
l0 -363 -22 -15 c-19 -14 -71 -16 -368 -16 -297 0 -349 2 -368 16 l-22 15 0
364 c0 317 2 366 16 379 13 14 61 16 371 16 318 0 358 -2 375 -17z m-1512
-393 c11 -11 20 -29 20 -40 0 -22 -33 -60 -53 -60 -20 0 -54 28 -60 50 -6 25
28 70 54 70 10 0 28 -9 39 -20z m2359 -6 c12 -15 21 -31 21 -36 0 -15 -48 -58
-65 -58 -21 0 -55 36 -55 60 0 25 34 60 59 60 11 0 29 -12 40 -26z m-2701
-440 c41 -29 19 -96 -31 -96 -36 0 -57 19 -57 53 0 27 30 59 55 59 6 0 21 -7
33 -16z m3030 0 c57 -39 -6 -127 -64 -90 -28 19 -32 60 -7 88 20 22 42 23 71
2z m-1501 -350 c15 -24 15 -29 2 -53 -11 -20 -22 -26 -49 -26 -27 0 -38 6 -49
26 -13 24 -13 29 2 53 12 18 26 26 47 26 21 0 35 -8 47 -26z"/>
<path d="M2914 3264 c-16 -24 -16 -27 3 -52 25 -34 80 -72 115 -79 22 -4 30
-14 39 -47 18 -68 45 -110 103 -164 57 -51 134 -86 178 -80 28 4 49 43 39 72
-5 13 -26 27 -54 37 -82 30 -141 86 -153 146 -5 26 -1 30 51 52 83 36 116 88
79 125 -22 23 -53 20 -96 -10 -53 -37 -121 -43 -176 -15 -22 11 -43 25 -47 31
-13 21 -64 11 -81 -16z"/>
<path d="M2325 2036 c-37 -17 -80 -62 -94 -99 -6 -16 -11 -91 -11 -167 0 -139
0 -140 26 -157 24 -15 29 -15 53 -2 21 12 27 23 29 62 l3 48 56 -3 c54 -3 57
-4 60 -33 7 -61 13 -75 39 -81 17 -4 31 -1 45 12 19 17 20 28 17 175 -3 141
-5 161 -24 186 -47 63 -133 88 -199 59z m92 -104 c17 -11 34 -62 28 -83 -5
-16 -16 -19 -61 -19 l-54 0 0 37 c0 57 46 91 87 65z"/>
<path d="M2692 2034 c-21 -15 -22 -20 -22 -209 0 -189 1 -194 22 -209 30 -21
44 -20 68 4 19 19 20 33 20 205 0 172 -1 186 -20 205 -24 24 -38 25 -68 4z"/>
</g>
</svg>
